<svg id="Layer_1" data-name="Layer 1" xmlns="http://www.w3.org/2000/svg" viewBox="0 0 960 101.84"><defs><style>.cls-1{fill:#fff;}</style></defs><path class="cls-1" d="M893.18,74.62c0-16.36,8.58-24.87,24.4-24.87h29.11c17.66,0,31.46,13.35,31.46,30.55,0,9.35-3.87,17-10.26,21.87L976.64,116A21.54,21.54,0,0,1,980,127.88a21.85,21.85,0,0,1-22,22,22.31,22.31,0,0,1-19.18-10.85l-2.36-4.17a21.44,21.44,0,0,1-20.86,15c-12.28,0-22.38-10.35-22.38-22.87V74.62Zm-6.68,56.11a19,19,0,0,1-19.07,19.19H832.59C816.66,149.92,808,141.5,808,125V74.66c0-16.33,8.63-24.91,24.56-24.91h34.84A19.21,19.21,0,0,1,886.5,69.11c0,9.76-6,16.83-14.59,18.52,4,2.52,6.13,6.73,6.13,12.29s-2.32,9.76-6.13,12.29c8.46,1.68,14.59,8.92,14.59,18.52ZM781,127.38c0,12.36-10.35,22.54-24.21,22.54-13,0-23.54-10.18-23.54-22.54V92.82a21.6,21.6,0,0,1-20.37-21.53,21.38,21.38,0,0,1,21.54-21.54h45.41A21.55,21.55,0,0,1,781,92.82v34.56ZM624.38,74.62c0-16.36,8.75-24.87,24.4-24.87h29.11c17.66,0,31.46,13.35,31.46,30.55,0,9.35-3.87,17-10.26,21.87L707.84,116a21.54,21.54,0,0,1,3.36,11.85,21.85,21.85,0,0,1-22,22A22.31,22.31,0,0,1,670,139.07l-2.36-4.17a21.45,21.45,0,0,1-20.86,15c-12.28,0-22.38-10.35-22.38-22.87V74.62Zm-55.23,56.22c-5.69,11.77-13.73,17.41-23.45,17.41-17.59,0-30.32-16.09-22.45-34.16l20.61-47.77c5.19-11.77,12.73-18.24,25.46-18.24,12.9,0,20.44,6.47,25.46,18.24l20.61,47.77c7.71,18.07-4.86,34.16-22.62,34.16-9.88,0-17.92-5.64-23.62-17.41Zm-58.67-3.46c0,12.36-10.54,22.54-24.09,22.54-13,0-23.58-10.18-23.58-22.54V92.82A21.62,21.62,0,0,1,442.4,71.29,21.4,21.4,0,0,1,464,49.75h45.33a21.55,21.55,0,0,1,1.17,43.07v34.56Zm-68.08-9.95c0,19.93-15.39,32.49-41.32,32.49-26.44,0-38.82-9-38.82-23.78,0-10.22,7.86-16.75,19.07-16.75h.17l-6-5.53C368,97,362.76,90.12,362.76,80.07c0-19.6,14.39-32,39-32,25.1,0,37,8.88,37,23.78,0,8.88-6,14.91-15.06,16.25l6.19,5.53c7.53,6.7,12.55,13.74,12.55,23.79Zm-85.15,8.39a22.94,22.94,0,0,1-41.62,12.8L310.91,132c-2.19,9.64-10.62,16.28-21.4,16.28A22.28,22.28,0,0,1,267.1,126V70.34a22.17,22.17,0,0,1,22.41-22.26c10.95,0,19.55,7.14,21.57,16.94l5.22-7.31a23.27,23.27,0,0,1,18.54-9.47c12.13,0,22.41,9.47,22.41,21.77A21.82,21.82,0,0,1,353,83.13L342.25,97.92,353,112.7a22.18,22.18,0,0,1,4.21,13.12Zm-98.5-5.1c0,16.09-13.45,27.53-35,27.53-28.88,0-50.13-21.39-50.13-50.08s21.25-50.09,50.13-50.09c21.57,0,35,11.44,35,27.53,0,10.78-5.31,18.08-15.94,22.56,10.63,4.47,15.94,11.94,15.94,22.55ZM141.13,48.08c13.49,0,24.29,11,24.12,24v52.25a24.21,24.21,0,0,1-48.42,0V72a24.24,24.24,0,0,1,24.3-24Zm-31,77.74a23,23,0,0,1-41.72,12.8L63.73,132c-2.18,9.64-10.59,16.28-21.36,16.28A22.26,22.26,0,0,1,20,126V70.34A22.16,22.16,0,0,1,42.37,48.08C53.3,48.08,61.88,55.22,63.9,65l5.38-7.31a23.23,23.23,0,0,1,18.51-9.47c12.11,0,22.37,9.47,22.37,21.77A21.82,21.82,0,0,1,106,83.13L95.19,97.92,106,112.7a22.18,22.18,0,0,1,4.21,13.12Z" transform="translate(-20 -48.08)"/></svg>